<?xml version="1.0" encoding="utf-8"?>
<!-- Generator: Adobe Illustrator 16.0.0, SVG Export Plug-In . SVG Version: 6.00 Build 0)  -->
<!DOCTYPE svg PUBLIC "-//W3C//DTD SVG 1.1//EN" "http://www.w3.org/Graphics/SVG/1.1/DTD/svg11.dtd">
<svg version="1.1" id="Livello_1" xmlns="http://www.w3.org/2000/svg" xmlns:xlink="http://www.w3.org/1999/xlink" x="0px" y="0px"
	 width="100px" height="100px" viewBox="0 0 100 100" enable-background="new 0 0 100 100" xml:space="preserve">
<g>
	<path id="_x3C_IconW_x3E_" fill="#FFFFFF" d="M80.688,44.57v39.218c0,2.156-1.766,3.917-3.926,3.917
		c-2.155,0-3.921-1.761-3.921-3.917V44.57c0-2.155,1.766-3.921,3.921-3.921C78.922,40.649,80.688,42.415,80.688,44.57 M25.785,44.57
		v39.218c0,2.156-1.763,3.917-3.921,3.917c-2.155,0-3.921-1.761-3.921-3.917V44.57c0-2.155,1.766-3.921,3.921-3.921
		C24.022,40.649,25.785,42.415,25.785,44.57 M39.905,21.045h18.821c2.39,0,4.313,1.924,4.313,4.314v5.49H35.59v-5.49
		C35.59,22.969,37.51,21.045,39.905,21.045 M72.841,30.849V19.082c0-4.332-3.511-7.842-7.842-7.842H33.627
		c-4.332,0-7.842,3.51-7.842,7.842v11.767H10.102c-4.333,0-7.842,3.51-7.842,7.842v50.977c0,4.335,3.508,7.841,7.842,7.841h78.426
		c4.333,0,7.844-3.506,7.844-7.841V38.691c0-4.332-3.511-7.842-7.844-7.842H72.841z"/>
</g>
</svg>
