<?xml version="1.0" encoding="utf-8"?>
<!-- Generator: Adobe Illustrator 16.0.0, SVG Export Plug-In . SVG Version: 6.00 Build 0)  -->
<!DOCTYPE svg PUBLIC "-//W3C//DTD SVG 1.1//EN" "http://www.w3.org/Graphics/SVG/1.1/DTD/svg11.dtd">
<svg version="1.1" id="Livello_1" xmlns="http://www.w3.org/2000/svg" xmlns:xlink="http://www.w3.org/1999/xlink" x="0px" y="0px"
	 width="100px" height="100px" viewBox="0 0 100 100" enable-background="new 0 0 100 100" xml:space="preserve">
<g id="_x3C_IconC_x3E_">
	<rect x="75.108" y="28.11" fill="#FFFFFF" width="24.03" height="70.953"/>
	<rect x="55.651" y="68.165" fill="#FFFFFF" width="24.033" height="30.898"/>
	<rect x="31.62" y="49.87" fill="#FFFFFF" width="24.031" height="49.194"/>
	<rect x="3.009" y="68.165" fill="#FFFFFF" width="28.611" height="30.898"/>
	<rect x="38.732" y="54.307" fill="#878787" width="5.931" height="6.977"/>
	<rect x="47.823" y="54.307" fill="#878787" width="5.932" height="6.977"/>
	<rect x="38.732" y="65.471" fill="#878787" width="5.931" height="6.978"/>
	<rect x="47.823" y="65.471" fill="#878787" width="5.932" height="6.978"/>
	<rect x="38.384" y="76.637" fill="#878787" width="5.932" height="6.976"/>
	<rect x="47.475" y="76.637" fill="#878787" width="5.931" height="6.976"/>
	<rect x="77.576" y="30.083" fill="#878787" width="6.887" height="8.103"/>
	<rect x="88.415" y="30.083" fill="#878787" width="6.887" height="8.103"/>
	<rect x="77.576" y="40.843" fill="#878787" width="6.887" height="8.104"/>
	<rect x="88.415" y="40.843" fill="#878787" width="6.887" height="8.104"/>
	<rect x="77.576" y="51.604" fill="#878787" width="6.887" height="8.103"/>
	<rect x="88.415" y="51.604" fill="#878787" width="6.887" height="8.103"/>
	<rect x="77.576" y="62.263" fill="#878787" width="6.887" height="8.102"/>
	<rect x="88.415" y="62.263" fill="#878787" width="6.887" height="8.102"/>
	<rect x="77.576" y="73.516" fill="#878787" width="6.887" height="8.104"/>
	<rect x="88.415" y="73.516" fill="#878787" width="6.887" height="8.104"/>
	<rect x="77.576" y="84.77" fill="#878787" width="6.887" height="8.104"/>
	<rect x="88.415" y="84.77" fill="#878787" width="6.887" height="8.104"/>
	<rect x="57.868" y="70.978" fill="#878787" width="5.933" height="6.978"/>
	<rect x="66.961" y="70.978" fill="#878787" width="5.932" height="6.978"/>
	<rect x="57.868" y="80.67" fill="#878787" width="5.933" height="6.977"/>
	<rect x="66.961" y="80.67" fill="#878787" width="5.932" height="6.977"/>
	<rect x="5.292" y="70.978" fill="#878787" width="8.237" height="9.692"/>
	<rect x="17.919" y="70.978" fill="#878787" width="8.237" height="9.692"/>
	<rect x="17.315" y="85.126" fill="#878787" width="8.238" height="9.693"/>
</g>
</svg>
