<?xml version="1.0" encoding="utf-8"?>
<!-- Generator: Adobe Illustrator 16.0.0, SVG Export Plug-In . SVG Version: 6.00 Build 0)  -->
<!DOCTYPE svg PUBLIC "-//W3C//DTD SVG 1.1//EN" "http://www.w3.org/Graphics/SVG/1.1/DTD/svg11.dtd">
<svg version="1.1" id="Livello_1" xmlns="http://www.w3.org/2000/svg" xmlns:xlink="http://www.w3.org/1999/xlink" x="0px" y="0px"
	 width="100px" height="100px" viewBox="0 0 100 100" enable-background="new 0 0 100 100" xml:space="preserve">
<g>
	<path id="_x3C_IconL_x3E_" fill="#FFFFFF" d="M49.391,11.887c11.635,0,21.063,9.429,21.063,21.063
		c0,11.635-9.428,21.064-21.063,21.064c-11.636,0-21.063-9.429-21.063-21.064C28.327,21.315,37.755,11.887,49.391,11.887
		 M18.297,32.388c0,20.462,24.132,36.208,26.078,59.739v1.004c0,2.768,2.246,5.016,5.016,5.016c2.768,0,5.015-2.248,5.015-5.016
		v-1.004c2.065-23.531,26.079-39.277,26.079-59.739c0-16.871-13.922-30.531-31.094-30.531S18.297,15.517,18.297,32.388
		 M49.391,19.911c-7.203,0-13.04,5.838-13.04,13.039c0,7.202,5.837,13.04,13.04,13.04c7.201,0,13.039-5.838,13.039-13.04
		C62.43,25.749,56.592,19.911,49.391,19.911 M44.375,32.95c0-2.768,2.246-5.015,5.016-5.015c2.768,0,5.015,2.247,5.015,5.015
		c0,2.769-2.247,5.015-5.015,5.015C46.621,37.965,44.375,35.718,44.375,32.95"/>
</g>
</svg>
