<?xml version="1.0" encoding="utf-8"?>
<!-- Generator: Adobe Illustrator 16.0.0, SVG Export Plug-In . SVG Version: 6.00 Build 0)  -->
<!DOCTYPE svg PUBLIC "-//W3C//DTD SVG 1.1//EN" "http://www.w3.org/Graphics/SVG/1.1/DTD/svg11.dtd">
<svg version="1.1" id="Livello_1" xmlns="http://www.w3.org/2000/svg" xmlns:xlink="http://www.w3.org/1999/xlink" x="0px" y="0px"
	 width="71px" height="40px" viewBox="0 0 71 40" enable-background="new 0 0 71 40" xml:space="preserve">
<g>
	<defs>
		<rect id="SVGID_1_" x="0.847" y="17.14" width="16.866" height="22.271"/>
	</defs>
	<clipPath id="SVGID_2_">
		<use xlink:href="#SVGID_1_"  overflow="visible"/>
	</clipPath>
	<path clip-path="url(#SVGID_2_)" fill="#888888" d="M7.922,17.326c2.282-0.772,5.071,0.969,4.661,3.232
		c0.03,2.247-3.187,3.437-5.154,2.294C5.058,21.75,5.237,17.985,7.922,17.326"/>
	<path clip-path="url(#SVGID_2_)" fill="#888888" d="M6.27,23.906c1.945,0.015,3.889,0.015,5.834-0.006
		c1.855,1.809,4.152,3.31,5.61,5.412c-0.068,0.336-0.21,1.009-0.277,1.345c-1.803-0.396-3.119-1.6-4.428-2.688
		c-0.03,0.505-0.097,1.513-0.127,2.016c-2.229-0.014-4.465-0.047-6.687,0.068c-0.217-0.471-0.65-1.418-0.867-1.889
		c-1.407,0.799-2.581,2.79-4.481,1.915c0.015-0.322,0.053-0.962,0.067-1.284C2.538,27.026,4.481,25.533,6.27,23.906"/>
	<path clip-path="url(#SVGID_2_)" fill="#888888" d="M5.492,31.195c0.987,0.766,1.945,1.56,2.955,2.305
		c-0.584,0.688-1.19,1.36-1.796,2.033c0.958,1.066,3.463,3.697,0.457,3.878c-1.586-1.237-3.037-2.623-4.293-4.123
		C2.545,33.508,4.385,32.399,5.492,31.195"/>
	<path clip-path="url(#SVGID_2_)" fill="#888888" d="M10.219,33.413c0.942-0.686,1.848-1.425,2.715-2.179
		c1.062,1.226,3.463,2.132,2.962,3.955c-1.376,1.634-2.939,3.368-5.108,4.161c-2.192-0.935,0.216-2.723,0.957-3.813
		C11.221,34.831,10.713,34.127,10.219,33.413"/>
</g>
</svg>
