<?xml version="1.0" encoding="utf-8"?>
<!-- Generator: Adobe Illustrator 16.0.0, SVG Export Plug-In . SVG Version: 6.00 Build 0)  -->
<!DOCTYPE svg PUBLIC "-//W3C//DTD SVG 1.1//EN" "http://www.w3.org/Graphics/SVG/1.1/DTD/svg11.dtd">
<svg version="1.1" id="Livello_1" xmlns="http://www.w3.org/2000/svg" xmlns:xlink="http://www.w3.org/1999/xlink" x="0px" y="0px"
	 width="71px" height="40px" viewBox="0 0 71 40" enable-background="new 0 0 71 40" xml:space="preserve">
<g>
	<defs>
		<rect id="SVGID_1_" x="1" y="2.405" width="25.836" height="37.595"/>
	</defs>
	<clipPath id="SVGID_2_">
		<use xlink:href="#SVGID_1_"  overflow="visible"/>
	</clipPath>
	<path clip-path="url(#SVGID_2_)" fill="#888888" d="M12.323,5.678c1.993-0.555,4.079,1.297,3.587,3.356
		c-0.182,2.518-3.889,3.227-5.248,1.256C9.354,8.725,10.248,5.995,12.323,5.678"/>
	<path clip-path="url(#SVGID_2_)" fill="#888888" d="M21.234,10.103c1.118-1.185,2.213-2.399,3.394-3.528
		c0.719,0.027,1.642-0.056,2.033,0.701c0.571,0.947-0.391,1.792-0.942,2.463c-1.129,1.113-2.09,2.395-3.293,3.43
		c-1.788,0.872-3.732,1.39-5.569,2.165c0.033,3.476-0.048,6.955,0.033,10.43c1.625,4.031,3.774,7.856,5.346,11.914
		c0.693,1.394-1.113,2.85-2.373,2.134c-0.712-0.496-1.028-1.341-1.386-2.09c-1.691-3.722-3.468-7.401-5.14-11.13
		c-0.183,0.003-0.552,0.007-0.738,0.007C10.855,30.45,9,34.25,7.227,38.091c-0.339,0.76-0.857,1.542-1.691,1.795
		c-1.107,0.202-2.552-0.837-1.941-2.06c1.736-4.001,3.763-7.882,5.521-11.876c0.089-3.353,0.104-6.724-0.015-10.077
		c-1.889,2.106-3.617,4.348-5.506,6.456c-0.599,0.66-1.81,0.778-2.306-0.061c-0.674-0.703-0.018-1.638,0.443-2.261
		c1.859-2.235,3.752-4.451,5.614-6.69c0.492-0.596,1.125-1.206,1.96-1.203c2.243-0.067,4.493,0.008,6.739-0.019
		c1.05,0.019,1.993-0.525,2.965-0.849C19.774,10.919,20.682,10.785,21.234,10.103"/>
</g>
<rect x="26.06" y="2.578" transform="matrix(0.9658 -0.2591 0.2591 0.9658 -0.3917 7.1847)" fill="#888888" width="1.999" height="5"/>
</svg>
