<?xml version="1.0" encoding="utf-8"?>
<!-- Generator: Adobe Illustrator 16.0.0, SVG Export Plug-In . SVG Version: 6.00 Build 0)  -->
<!DOCTYPE svg PUBLIC "-//W3C//DTD SVG 1.1//EN" "http://www.w3.org/Graphics/SVG/1.1/DTD/svg11.dtd">
<svg version="1.1" id="Livello_1" xmlns="http://www.w3.org/2000/svg" xmlns:xlink="http://www.w3.org/1999/xlink" x="0px" y="0px"
	 width="71px" height="40px" viewBox="0 0 71 40" enable-background="new 0 0 71 40" xml:space="preserve">
<g>
	<defs>
		<rect id="SVGID_1_" x="0.618" y="0.652" width="15.124" height="38.695"/>
	</defs>
	<clipPath id="SVGID_2_">
		<use xlink:href="#SVGID_1_"  overflow="visible"/>
	</clipPath>
	<path clip-path="url(#SVGID_2_)" fill="#888888" d="M7.493,0.772c2.252-0.711,4.748,1.886,3.72,4.081
		c-0.646,2.209-3.92,2.787-5.297,0.964C4.399,4.211,5.318,1.211,7.493,0.772"/>
	<path clip-path="url(#SVGID_2_)" fill="#888888" d="M2.538,8.049c2.052-0.813,4.3-0.423,6.451-0.512
		c1.854,0.033,4-0.248,5.529,1.041c1.162,0.918,1.208,2.529,1.224,3.886c-0.021,2.977,0.016,5.955-0.012,8.937
		c0.028,0.671-0.244,1.697-1.073,1.664c-0.977,0.242-1.626-0.812-1.594-1.664c-0.016-2.896,0.004-5.786-0.003-8.676
		c-0.245,0.003-0.729,0.011-0.973,0.016c-0.04,8.288,0.021,16.581-0.031,24.868c0.211,1.986-3.274,2.439-3.44,0.389
		c-0.073-4.979-0.003-9.968-0.028-14.947H7.774c0.003,4.347-0.013,8.688,0.007,13.033c0.004,0.939-0.077,1.909-0.435,2.793
		c-1.13,0.93-3.276,0.467-3.207-1.228c-0.07-8.289,0.016-16.582-0.042-24.871h-0.78c-0.048,2.748,0.007,5.497-0.016,8.245
		c0,0.901-0.448,2.313-1.602,2.042c-0.679,0.064-1.119-0.718-1.062-1.319c-0.032-3.484-0.02-6.973-0.004-10.456
		C0.594,9.964,1.248,8.554,2.538,8.049"/>
</g>
<rect x="13.893" y="24.572" fill="#888888" width="1.849" height="9.36"/>
</svg>
