<?xml version="1.0" encoding="utf-8"?>
<!-- Generator: Adobe Illustrator 16.0.0, SVG Export Plug-In . SVG Version: 6.00 Build 0)  -->
<!DOCTYPE svg PUBLIC "-//W3C//DTD SVG 1.1//EN" "http://www.w3.org/Graphics/SVG/1.1/DTD/svg11.dtd">
<svg version="1.1" id="Livello_1" xmlns="http://www.w3.org/2000/svg" xmlns:xlink="http://www.w3.org/1999/xlink" x="0px" y="0px"
	 width="71px" height="40px" viewBox="0 0 71 40" enable-background="new 0 0 71 40" xml:space="preserve">
<g>
	<defs>
		<rect id="SVGID_1_" x="0.745" y="0.772" width="15.029" height="38.454"/>
	</defs>
	<clipPath id="SVGID_2_">
		<use xlink:href="#SVGID_1_"  overflow="visible"/>
	</clipPath>
	<path clip-path="url(#SVGID_2_)" fill="#888888" d="M7.577,0.892c2.237-0.707,4.718,1.875,3.696,4.055
		c-0.642,2.195-3.896,2.77-5.264,0.958C4.502,4.309,5.416,1.327,7.577,0.892"/>
	<path clip-path="url(#SVGID_2_)" fill="#888888" d="M2.653,8.123c2.04-0.807,4.273-0.42,6.411-0.509
		c1.842,0.033,3.975-0.247,5.494,1.035c1.155,0.913,1.2,2.514,1.216,3.862c-0.021,2.958,0.016,5.918-0.012,8.88
		c0.027,0.668-0.243,1.688-1.067,1.656c-0.97,0.237-1.616-0.808-1.584-1.656c-0.016-2.876,0.004-5.749-0.003-8.621
		c-0.244,0.003-0.724,0.011-0.967,0.016c-0.04,8.239,0.02,16.479-0.031,24.711c0.21,1.975-3.253,2.425-3.418,0.389
		c-0.072-4.948-0.003-9.908-0.028-14.854H7.856c0.003,4.318-0.012,8.632,0.008,12.952c0.003,0.932-0.077,1.898-0.432,2.775
		c-1.124,0.925-3.257,0.465-3.188-1.22c-0.069-8.237,0.016-16.48-0.042-24.717H3.428c-0.048,2.731,0.008,5.462-0.016,8.193
		c0,0.896-0.445,2.297-1.592,2.031c-0.675,0.061-1.112-0.714-1.055-1.313c-0.032-3.461-0.02-6.928-0.004-10.39
		C0.721,10.025,1.371,8.625,2.653,8.123"/>
</g>
</svg>
