<?xml version="1.0" encoding="utf-8"?>
<!-- Generator: Adobe Illustrator 16.0.0, SVG Export Plug-In . SVG Version: 6.00 Build 0)  -->
<!DOCTYPE svg PUBLIC "-//W3C//DTD SVG 1.1//EN" "http://www.w3.org/Graphics/SVG/1.1/DTD/svg11.dtd">
<svg version="1.1" id="Livello_1" xmlns="http://www.w3.org/2000/svg" xmlns:xlink="http://www.w3.org/1999/xlink" x="0px" y="0px"
	 width="560px" height="960px" viewBox="0 0 560 960" enable-background="new 0 0 560 960" xml:space="preserve">
<g>
	<defs>
		<rect id="SVGID_1_" x="106" y="295" width="348.744" height="370"/>
	</defs>
	<clipPath id="SVGID_2_">
		<use xlink:href="#SVGID_1_"  overflow="visible"/>
	</clipPath>
	<path clip-path="url(#SVGID_2_)" fill="#878787" d="M126,295.5c0,0-19.5,0-19.5,19.5v36c0,0,0,19.5,19.5,19.5h295
		c0,0,19.5,0,19.5-19.5v-36c0,0,0-19.5-19.5-19.5H126z"/>
	<path clip-path="url(#SVGID_2_)" fill="none" stroke="#878787" d="M126,295.5c0,0-19.5,0-19.5,19.5v36c0,0,0,19.5,19.5,19.5h295
		c0,0,19.5,0,19.5-19.5v-36c0,0,0-19.5-19.5-19.5H126z"/>
</g>
<text transform="matrix(1 0 0 1 252.5552 342.2402)" fill="#FFFFFF" font-family="'SanukOT-Regular'" font-size="24">Neighbourhood</text>
<polyline fill="#FFFFFF" points="152.971,328.209 152.971,339.811 166.842,339.811 166.842,328.209 159.907,321.272 
	152.718,328.209 "/>
<g>
	<defs>
		<rect id="SVGID_3_" x="106" y="295" width="348.744" height="370"/>
	</defs>
	<clipPath id="SVGID_4_">
		<use xlink:href="#SVGID_3_"  overflow="visible"/>
	</clipPath>
	<circle clip-path="url(#SVGID_4_)" fill="none" stroke="#FFFFFF" stroke-width="2.018" cx="160.159" cy="333" r="17.025"/>
	<circle clip-path="url(#SVGID_4_)" fill="none" stroke="#FFFFFF" stroke-width="1.009" cx="160.159" cy="333" r="21.25"/>
	<path clip-path="url(#SVGID_4_)" fill="#878787" d="M126,393.5c0,0-19.5,0-19.5,19.5v36c0,0,0,19.5,19.5,19.5h295
		c0,0,19.5,0,19.5-19.5v-36c0,0,0-19.5-19.5-19.5H126z"/>
	<path clip-path="url(#SVGID_4_)" fill="none" stroke="#878787" d="M126,393.5c0,0-19.5,0-19.5,19.5v36c0,0,0,19.5,19.5,19.5h295
		c0,0,19.5,0,19.5-19.5v-36c0,0,0-19.5-19.5-19.5H126z"/>
</g>
<text transform="matrix(1 0 0 1 252.5552 440.2402)"><tspan x="0" y="0" fill="#FFFFFF" font-family="'SanukOT-Regular'" font-size="24">W</tspan><tspan x="22.704" y="0" fill="#FFFFFF" font-family="'SanukOT-Regular'" font-size="24">orkspace</tspan></text>
<g>
	<defs>
		<rect id="SVGID_5_" x="106" y="295" width="348.744" height="370"/>
	</defs>
	<clipPath id="SVGID_6_">
		<use xlink:href="#SVGID_5_"  overflow="visible"/>
	</clipPath>
	<path clip-path="url(#SVGID_6_)" fill="#878787" d="M126,491.5c0,0-19.5,0-19.5,19.5v36c0,0,0,19.5,19.5,19.5h295
		c0,0,19.5,0,19.5-19.5v-36c0,0,0-19.5-19.5-19.5H126z"/>
	<path clip-path="url(#SVGID_6_)" fill="none" stroke="#878787" d="M126,491.5c0,0-19.5,0-19.5,19.5v36c0,0,0,19.5,19.5,19.5h295
		c0,0,19.5,0,19.5-19.5v-36c0,0,0-19.5-19.5-19.5H126z"/>
</g>
<text transform="matrix(1 0 0 1 252.5552 538.2402)" fill="#FFFFFF" font-family="'SanukOT-Regular'" font-size="24">My City</text>
<g>
	<defs>
		<rect id="SVGID_7_" x="106" y="295" width="348.744" height="370"/>
	</defs>
	<clipPath id="SVGID_8_">
		<use xlink:href="#SVGID_7_"  overflow="visible"/>
	</clipPath>
	<path clip-path="url(#SVGID_8_)" fill="#878787" d="M126,589.5c0,0-19.5,0-19.5,19.5v36c0,0,0,19.5,19.5,19.5h295
		c0,0,19.5,0,19.5-19.5v-36c0,0,0-19.5-19.5-19.5H126z"/>
	<path clip-path="url(#SVGID_8_)" fill="none" stroke="#878787" d="M126,589.5c0,0-19.5,0-19.5,19.5v36c0,0,0,19.5,19.5,19.5h295
		c0,0,19.5,0,19.5-19.5v-36c0,0,0-19.5-19.5-19.5H126z"/>
</g>
<text transform="matrix(1 0 0 1 252.5552 636.2402)" fill="#FFFFFF" font-family="'SanukOT-Regular'" font-size="24">My Location</text>
<g>
	<defs>
		<rect id="SVGID_9_" x="106" y="295" width="348.744" height="370"/>
	</defs>
	<clipPath id="SVGID_10_">
		<use xlink:href="#SVGID_9_"  overflow="visible"/>
	</clipPath>
	<path clip-path="url(#SVGID_10_)" fill="#FFFFFF" d="M152.352,608c5.8,0,10.5,4.7,10.5,10.5s-4.7,10.5-10.5,10.5
		c-5.8,0-10.5-4.7-10.5-10.5S146.551,608,152.352,608 M136.852,618.22c0,10.2,12.03,18.05,13,29.78v0.5c0,1.38,1.12,2.5,2.5,2.5
		c1.38,0,2.5-1.12,2.5-2.5V648c1.03-11.73,13-19.58,13-29.78c0-8.41-6.94-15.22-15.5-15.22S136.852,609.81,136.852,618.22
		 M152.352,612c-3.59,0-6.5,2.91-6.5,6.5s2.91,6.5,6.5,6.5c3.59,0,6.5-2.91,6.5-6.5S155.941,612,152.352,612 M149.852,618.5
		c0-1.38,1.12-2.5,2.5-2.5c1.38,0,2.5,1.12,2.5,2.5s-1.12,2.5-2.5,2.5C150.971,621,149.852,619.88,149.852,618.5"/>
</g>
<rect x="165.222" y="510" fill="#FFFFFF" width="12.871" height="38"/>
<rect x="154.803" y="531.452" fill="#FFFFFF" width="12.871" height="16.548"/>
<rect x="141.932" y="521.653" fill="#FFFFFF" width="12.871" height="26.347"/>
<rect x="126.609" y="531.452" fill="#FFFFFF" width="15.323" height="16.548"/>
<rect x="145.741" y="524.03" fill="#878787" width="3.177" height="3.736"/>
<rect x="150.61" y="524.03" fill="#878787" width="3.177" height="3.736"/>
<rect x="145.741" y="530.009" fill="#878787" width="3.177" height="3.737"/>
<rect x="150.61" y="530.009" fill="#878787" width="3.177" height="3.737"/>
<rect x="145.555" y="535.989" fill="#878787" width="3.177" height="3.736"/>
<rect x="150.423" y="535.989" fill="#878787" width="3.177" height="3.736"/>
<rect x="166.544" y="511.057" fill="#878787" width="3.689" height="4.34"/>
<rect x="172.349" y="511.057" fill="#878787" width="3.689" height="4.34"/>
<rect x="166.544" y="516.819" fill="#878787" width="3.689" height="4.34"/>
<rect x="172.349" y="516.819" fill="#878787" width="3.689" height="4.34"/>
<rect x="166.544" y="522.582" fill="#878787" width="3.689" height="4.34"/>
<rect x="172.349" y="522.582" fill="#878787" width="3.689" height="4.34"/>
<rect x="166.544" y="528.291" fill="#878787" width="3.689" height="4.339"/>
<rect x="172.349" y="528.291" fill="#878787" width="3.689" height="4.339"/>
<rect x="166.544" y="534.317" fill="#878787" width="3.689" height="4.34"/>
<rect x="172.349" y="534.317" fill="#878787" width="3.689" height="4.34"/>
<rect x="166.544" y="540.345" fill="#878787" width="3.689" height="4.34"/>
<rect x="172.349" y="540.345" fill="#878787" width="3.689" height="4.34"/>
<rect x="155.99" y="532.958" fill="#878787" width="3.177" height="3.737"/>
<rect x="160.859" y="532.958" fill="#878787" width="3.177" height="3.737"/>
<rect x="155.99" y="538.149" fill="#878787" width="3.177" height="3.736"/>
<rect x="160.859" y="538.149" fill="#878787" width="3.177" height="3.736"/>
<rect x="127.831" y="532.958" fill="#878787" width="4.412" height="5.191"/>
<rect x="134.594" y="532.958" fill="#878787" width="4.412" height="5.191"/>
<rect x="134.271" y="540.536" fill="#878787" width="4.412" height="5.19"/>
<g>
	<defs>
		<rect id="SVGID_11_" x="106" y="295" width="348.744" height="370"/>
	</defs>
	<clipPath id="SVGID_12_">
		<use xlink:href="#SVGID_11_"  overflow="visible"/>
	</clipPath>
	<path clip-path="url(#SVGID_12_)" fill="#FFFFFF" d="M160.546,426.434v18.265c0,1.004-0.822,1.825-1.827,1.825
		c-1.004,0-1.826-0.821-1.826-1.825v-18.265c0-1.004,0.822-1.826,1.826-1.826C159.724,424.607,160.546,425.43,160.546,426.434
		 M134.977,426.434v18.265c0,1.004-0.822,1.825-1.827,1.825c-1.004,0-1.826-0.821-1.826-1.825v-18.265
		c0-1.004,0.822-1.826,1.826-1.826C134.155,424.607,134.977,425.43,134.977,426.434 M141.552,415.476h8.766
		c1.114,0,2.009,0.896,2.009,2.01v2.557h-12.784v-2.557C139.543,416.372,140.437,415.476,141.552,415.476 M156.893,420.042v-5.479
		c0-2.018-1.635-3.652-3.653-3.652h-14.611c-2.018,0-3.652,1.635-3.652,3.652v5.479h-7.306c-2.018,0-3.652,1.635-3.652,3.653v23.741
		c0,2.02,1.634,3.653,3.652,3.653h36.527c2.019,0,3.653-1.634,3.653-3.653v-23.741c0-2.019-1.634-3.653-3.653-3.653H156.893z"/>
</g>
</svg>
