<?xml version="1.0" encoding="utf-8"?>
<!-- Generator: Adobe Illustrator 16.0.0, SVG Export Plug-In . SVG Version: 6.00 Build 0)  -->
<!DOCTYPE svg PUBLIC "-//W3C//DTD SVG 1.1//EN" "http://www.w3.org/Graphics/SVG/1.1/DTD/svg11.dtd">
<svg version="1.1" id="Livello_1" xmlns="http://www.w3.org/2000/svg" xmlns:xlink="http://www.w3.org/1999/xlink" x="0px" y="0px"
	 width="71px" height="40px" viewBox="0 0 71 40" enable-background="new 0 0 71 40" xml:space="preserve">
<g>
	<g id="XMLID_2_">
		<path fill="#888888" d="M18.714,25.365c0.662,0,0.899,0.722,0.899,1.65c0,1.026-0.293,1.641-0.899,1.641
			c-0.618,0-0.941-0.685-0.929-1.641C17.785,26.102,18.07,25.365,18.714,25.365z"/>
		<path fill="#888888" d="M18.744,24.199c-1.562,0-2.561,1.236-2.561,2.872c0.015,1.711,1.11,2.754,2.491,2.754
			c1.321,0,2.532-0.999,2.532-2.909C21.205,25.351,20.32,24.199,18.744,24.199z M12.089,26.031c1.321,0,2.532-0.999,2.532-2.916
			c0-1.559-0.885-2.714-2.461-2.714c-1.559,0-2.559,1.24-2.559,2.869C9.601,24.988,10.697,26.031,12.089,26.031z M17.448,20.401
			l-5.245,9.45h1.14l5.26-9.45H17.448z M28.663,27.124c0,6.819-5.904,12.343-13.189,12.343S2.284,33.943,2.284,27.124
			c0-8.744,10.212-14.423,11.062-24.158V2.559c0-1.119,0.953-2.025,2.127-2.025c1.175,0,2.128,0.906,2.128,2.025v0.408
			C18.427,12.701,28.663,18.38,28.663,27.124z"/>
		<path fill="#888888" d="M12.118,21.571c0.659,0,0.914,0.715,0.914,1.641c0,1.028-0.296,1.65-0.899,1.65
			c-0.622,0-0.944-0.692-0.944-1.65C11.189,22.298,11.485,21.571,12.118,21.571z"/>
	</g>
</g>
</svg>
