<?xml version="1.0" encoding="utf-8"?>
<!-- Generator: Adobe Illustrator 16.0.0, SVG Export Plug-In . SVG Version: 6.00 Build 0)  -->
<!DOCTYPE svg PUBLIC "-//W3C//DTD SVG 1.1//EN" "http://www.w3.org/Graphics/SVG/1.1/DTD/svg11.dtd">
<svg version="1.1" id="Livello_1" xmlns="http://www.w3.org/2000/svg" xmlns:xlink="http://www.w3.org/1999/xlink" x="0px" y="0px"
	 width="71px" height="40px" viewBox="0 0 71 40" enable-background="new 0 0 71 40" xml:space="preserve">
<path fill-rule="evenodd" clip-rule="evenodd" fill="#BABBBF" d="M7.058,13.628c0-2.39,0.009-4.779-0.004-7.169
	C7.049,5.596,7.354,4.845,7.825,4.158C8.267,3.512,8.822,2.966,9.58,2.691c1.529-0.555,3.004-0.479,4.284,0.594
	c1.042,0.874,1.589,2.008,1.582,3.42c-0.024,4.744-0.007,9.488-0.015,14.231c0,0.25,0.059,0.391,0.285,0.53
	c0.958,0.589,1.821,1.296,2.466,2.231c0.829,1.202,1.426,2.498,1.591,3.971c0.164,1.468,0.083,2.906-0.417,4.31
	c-0.312,0.874-0.799,1.638-1.338,2.387c-0.798,1.112-1.843,1.9-3.058,2.475c-1.017,0.481-2.092,0.737-3.228,0.772
	c-1.363,0.043-2.674-0.138-3.915-0.717c-1.24-0.58-2.327-1.35-3.147-2.479c-0.719-0.99-1.319-2.028-1.602-3.229
	c-0.578-2.455-0.271-4.771,1.052-6.945c0.693-1.138,1.619-2.027,2.741-2.72c0.197-0.122,0.198-0.264,0.198-0.442
	C7.058,18.597,7.058,16.112,7.058,13.628z"/>
<path fill-rule="evenodd" clip-rule="evenodd" fill="#BABBBF" d="M21.257,8.282c-0.662,0-1.324-0.024-1.984,0.008
	c-0.441,0.022-0.729-0.228-0.885-0.538c-0.336-0.67-0.068-1.796,1.004-1.755c1.309,0.05,2.622,0.011,3.932,0.012
	c0.528,0,0.97,0.448,0.989,0.982c0.012,0.349-0.007,0.676-0.265,0.955c-0.213,0.231-0.443,0.352-0.771,0.341
	C22.604,8.266,21.93,8.282,21.257,8.282z"/>
<path fill-rule="evenodd" clip-rule="evenodd" fill="#BABBBF" d="M21.28,17.015c-0.673,0-1.347,0.001-2.02,0
	c-0.617-0.001-0.984-0.401-0.984-1.067c0-0.664,0.368-1.062,0.989-1.063c1.358-0.001,2.717-0.001,4.075,0
	c0.608,0,0.974,0.411,0.971,1.084c-0.002,0.641-0.377,1.043-0.976,1.045C22.65,17.016,21.965,17.015,21.28,17.015z"/>
<path fill-rule="evenodd" clip-rule="evenodd" fill="#BABBBF" d="M21.228,10.482c0.661,0,1.323-0.002,1.984,0
	c0.586,0.002,0.957,0.416,0.957,1.063c0,0.649-0.369,1.065-0.954,1.066c-1.334,0.002-2.669,0.003-4.004,0
	c-0.575-0.001-0.935-0.423-0.935-1.08c0-0.624,0.371-1.044,0.932-1.048C19.881,10.479,20.554,10.482,21.228,10.482z"/>
<path fill-rule="evenodd" clip-rule="evenodd" fill="#BABBBF" d="M21.284,20.92c-0.733,0-1.466,0.002-2.199-0.001
	c-0.528-0.002-0.808-0.298-0.809-0.845c0-0.534,0.255-0.786,0.811-0.787c1.478-0.002,2.956-0.003,4.434,0.001
	c0.535,0.001,0.79,0.256,0.791,0.771c0.001,0.555-0.275,0.857-0.793,0.86C22.773,20.922,22.028,20.92,21.284,20.92z"/>
<path fill-rule="evenodd" clip-rule="evenodd" fill="#FEFEFE" d="M13.521,14.533c0,2.662,0.002,5.323-0.004,7.985
	c-0.001,0.233,0.046,0.36,0.29,0.471c1.864,0.846,3.114,2.272,3.628,4.237c0.549,2.098,0.188,4.063-1.203,5.796
	c-0.404,0.502-0.901,0.88-1.399,1.277c-0.943,0.753-2.021,1.042-3.195,1.109c-1.719,0.1-3.184-0.452-4.457-1.606
	c-0.693-0.628-1.253-1.337-1.621-2.188c-0.706-1.634-0.773-3.297-0.152-4.975c0.324-0.875,0.859-1.604,1.495-2.285
	c0.583-0.628,1.25-1.093,2.04-1.396c0.192-0.073,0.174-0.223,0.174-0.377c-0.001-1.111,0-2.224,0-3.336
	c0-4.199,0.008-8.399-0.005-12.598c-0.003-1.061,0.951-1.957,1.981-1.992c0.617-0.021,1.188,0.063,1.687,0.479
	c0.461,0.384,0.739,0.85,0.741,1.45C13.524,9.233,13.521,11.883,13.521,14.533z"/>
<path fill-rule="evenodd" clip-rule="evenodd" fill="#BABBBF" d="M9.614,24.044c0.247-0.05,0.284-0.209,0.283-0.439
	c-0.008-2.355,0.048-4.711-0.029-7.063c-0.035-1.055,1.059-1.604,1.835-1.42c0.758,0.18,1.112,0.627,1.112,1.412
	c0,2.307,0.004,4.615-0.005,6.922c-0.001,0.264,0.075,0.375,0.331,0.481c1.916,0.799,3.196,2.139,3.505,4.264
	c0.413,2.843-1.362,5.431-4.201,5.955c-2.364,0.437-4.869-0.87-5.721-3.254c-0.688-1.926-0.411-3.692,0.841-5.303
	c0.488-0.627,1.132-1.064,1.841-1.409C9.454,24.111,9.562,24.117,9.614,24.044z"/>
<path fill-rule="evenodd" clip-rule="evenodd" fill="#DDDEE0" d="M9.614,24.044c-0.007,0.138-0.106,0.146-0.209,0.146
	C9.406,24.042,9.509,24.042,9.614,24.044z"/>
</svg>
