<?xml version="1.0" encoding="utf-8"?>
<!-- Generator: Adobe Illustrator 16.0.0, SVG Export Plug-In . SVG Version: 6.00 Build 0)  -->
<!DOCTYPE svg PUBLIC "-//W3C//DTD SVG 1.1//EN" "http://www.w3.org/Graphics/SVG/1.1/DTD/svg11.dtd">
<svg version="1.1" id="Livello_1" xmlns="http://www.w3.org/2000/svg" xmlns:xlink="http://www.w3.org/1999/xlink" x="0px" y="0px"
	 width="71px" height="40px" viewBox="0 0 71 40" enable-background="new 0 0 71 40" xml:space="preserve">
<g>
	<g>
		<path fill="#888888" d="M41.257,14.783C40.095,7.472,33.763,1.883,26.125,1.883c-6.911,0-12.752,4.576-14.662,10.862
			C5.529,14.094,1.101,19.402,1.101,25.744c0,7.361,5.968,13.329,13.331,13.329h19.236c7.363,0,13.33-5.968,13.33-13.329
			C46.997,21.201,44.726,17.19,41.257,14.783z M19.544,19.374l-0.439,1.716c-0.029,0.112-0.105,0.206-0.208,0.258
			c-0.105,0.051-0.225,0.055-0.332,0.011c-0.512-0.215-1.072-0.323-1.663-0.323c-1.66,0-2.652,1.033-2.652,2.766
			c0,1.73,0.972,2.724,2.666,2.724c0.65,0,1.313-0.146,1.655-0.284c0.11-0.043,0.234-0.036,0.338,0.021
			c0.104,0.058,0.178,0.157,0.2,0.274l0.326,1.687c0.033,0.176-0.053,0.353-0.212,0.432c-0.419,0.209-1.359,0.453-2.632,0.453
			c-3.283,0-5.406-2.032-5.406-5.178c0-3.275,2.258-5.477,5.618-5.477c1.203,0,2.1,0.243,2.54,0.47
			C19.506,19.007,19.59,19.195,19.544,19.374z M25.05,29.121c-2.882,0-4.895-2.164-4.895-5.265c0-3.182,2.077-5.404,5.051-5.404
			c2.954,0,4.938,2.104,4.938,5.235C30.143,26.987,28.144,29.121,25.05,29.121z M36.914,31.22c0,0.22-0.18,0.396-0.396,0.396h-4.847
			c-0.219,0-0.397-0.177-0.397-0.396v-0.968c0-0.111,0.048-0.218,0.131-0.294l0.882-0.798c1.416-1.267,2.091-1.979,2.107-2.616
			c0-0.394-0.236-0.59-0.728-0.59c-0.386,0-0.797,0.162-1.219,0.485c-0.099,0.075-0.228,0.099-0.348,0.066
			c-0.119-0.032-0.217-0.121-0.262-0.236l-0.452-1.146c-0.066-0.166-0.013-0.355,0.13-0.464c0.661-0.498,1.563-0.783,2.478-0.783
			c1.696,0,2.793,0.996,2.793,2.541c0,1.243-0.839,2.223-1.788,3.091h1.517c0.219,0,0.398,0.177,0.398,0.397V31.22L36.914,31.22
			L36.914,31.22z"/>
		<path fill="#888888" d="M25.149,20.964c-1.414,0-1.915,1.536-1.915,2.852c0,1.698,0.757,2.793,1.928,2.793
			c1.404,0,1.902-1.535,1.902-2.851C27.064,22.368,26.472,20.964,25.149,20.964z"/>
	</g>
</g>
</svg>
