<?xml version="1.0" encoding="utf-8"?>
<!-- Generator: Adobe Illustrator 16.0.0, SVG Export Plug-In . SVG Version: 6.00 Build 0)  -->
<!DOCTYPE svg PUBLIC "-//W3C//DTD SVG 1.1//EN" "http://www.w3.org/Graphics/SVG/1.1/DTD/svg11.dtd">
<svg version="1.1" id="Livello_1" xmlns="http://www.w3.org/2000/svg" xmlns:xlink="http://www.w3.org/1999/xlink" x="0px" y="0px"
	 width="560px" height="960px" viewBox="0 0 560 960" enable-background="new 0 0 560 960" xml:space="preserve">
<path fill-rule="evenodd" clip-rule="evenodd" fill="#D6C02F" d="M336.847,491.388v12.57c0,1.258-1.029,2.286-2.287,2.286h-6.283
	c-1.578,0-2.858,1.278-2.858,2.854c0,1.578,1.28,2.858,2.858,2.858h22.854c1.577,0,2.857-1.28,2.857-2.858
	c0-1.576-1.28-2.854-2.857-2.854h-6.286c-1.256,0-2.285-1.028-2.285-2.286v-12.57l9.245-9.358c2.239,1.574,4.96,2.501,7.897,2.501
	c7.576,0,13.713-6.137,13.713-13.713c0-7.576-6.137-13.713-13.713-13.713c-7.188,0-13.085,5.531-13.667,12.57h-25.209
	c-1.248,0-2.264,1.029-2.264,2.287c0,0.641,0.264,1.223,0.684,1.635L336.847,491.388z M355.931,477.881l4.249-4.309
	c0.41-0.412,0.664-0.985,0.664-1.612c0-1.257-1.017-2.287-2.263-2.287h-6.802c0.562-3.873,3.888-6.857,7.922-6.857
	c4.422,0,8,3.577,8,8c0,4.423-3.578,8-8,8C358.341,478.818,357.051,478.476,355.931,477.881z"/>
<g>
	<defs>
		<rect id="SVGID_1_" x="318.59" y="321.084" width="44.189" height="68.423"/>
	</defs>
	<clipPath id="SVGID_2_">
		<use xlink:href="#SVGID_1_"  overflow="visible"/>
	</clipPath>
	<path clip-path="url(#SVGID_2_)" fill="#D6C02F" d="M340.685,328.211c8.27,0,14.966,6.699,14.966,14.967
		s-6.696,14.969-14.966,14.969c-8.268,0-14.966-6.7-14.966-14.969S332.417,328.211,340.685,328.211 M318.59,342.78
		c0,14.542,17.149,25.731,18.53,42.451v0.712c0,1.967,1.596,3.564,3.564,3.564s3.564-1.597,3.564-3.564v-0.712
		c1.467-16.72,18.53-27.909,18.53-42.451c0-11.988-9.891-21.696-22.095-21.696C328.479,321.084,318.59,330.792,318.59,342.78
		 M340.685,333.911c-5.118,0-9.266,4.149-9.266,9.268s4.147,9.268,9.266,9.268s9.265-4.149,9.265-9.268
		S345.803,333.911,340.685,333.911 M337.12,343.179c0-1.965,1.596-3.564,3.564-3.564s3.564,1.6,3.564,3.564
		c0,1.966-1.596,3.564-3.564,3.564S337.12,345.145,337.12,343.179"/>
</g>
<g>
	<defs>
		<rect id="SVGID_3_" x="221.21" y="324.788" width="49.942" height="61.016"/>
	</defs>
	<clipPath id="SVGID_4_">
		<use xlink:href="#SVGID_3_"  overflow="visible"/>
	</clipPath>
	<path clip-path="url(#SVGID_4_)" fill="#D6C02F" d="M270.72,363.936c-0.494-0.457-1.354-0.348-1.685-1.08
		c-0.108-0.242-0.286-0.486-0.108-0.677c0.301-0.329,0.276,0.188,0.454,0.223c0.267,0.052,0.731,0.202,0.776,0.123
		c0.203-0.348,0.346-0.753,0.397-1.153c-0.027-0.077-0.057-0.15-0.089-0.222c-0.126-0.086-0.353-0.077-0.486-0.153
		c-0.4-0.225-0.529,0.059-0.479,0.489c-0.978-0.931-1.265-0.944-2.346-0.329c-0.514,0.294-1.131,0.178-1.67,0.119
		c-0.388-0.04-0.237-0.442,0.012-0.684c0.615-0.591,0.568-0.682-0.057-1.142c-0.484-0.36-0.875-0.85-0.534-1.625
		c0.223,0.316,0.331,0.78,0.682,0.674c0.26-0.077,0.371-0.427,0.396-0.81c0.02-0.294,0.479-0.635,0.822-0.813
		c0.497-0.254,0.106-0.6,0.018-0.578c-0.405,0.096-0.84-0.566-1.225,0.066c-0.186,0.304-0.534,0.084-0.786,0.024
		c-0.306-0.076-0.254-0.333-0.141-0.543c0.17-0.321-0.057-0.363-0.279-0.457c-0.316-0.133-0.38-0.403-0.296-0.699
		c0.084-0.289,0.331-0.343,0.6-0.373c0.477-0.057,0.946-0.136,1.509-0.222c-0.523-1.27-1.86-0.778-2.692-1.274
		c0.751-0.744,0.734-0.924-0.091-1.492c-0.138-0.094-0.316-0.217-0.264-0.385c0.04-0.141,0.281-0.365,0.316-0.346
		c0.479,0.262,0.825-0.355,1.292-0.166c0.15,0.064,0.363,0.057,0.432-0.143c0.086-0.255-0.173-0.267-0.306-0.309
		c-0.4-0.126-0.731-0.19-0.534-0.786c0.124-0.363-1.294-1.133-1.897-1.06c-0.082,0.008-0.128,0.19-0.262,0.05
		c-0.42-0.457-0.825-0.363-1.23,0.027c-0.186,0.18-0.415,0.156-0.63,0.072c-0.141-0.06-0.223-0.208-0.161-0.348
		c0.094-0.205,0.237-0.408,0.504-0.378c0.397,0.047,0.509-0.089,0.533-0.484c0.02-0.324,0.302-0.581,0.608-0.842
		c0.044,0.141,0.064,0.245,0.109,0.336c0.069,0.139-0.205,0.316,0.049,0.417c0.066,0.027,0.185,0.012,0.237-0.03
		c0.161-0.141,0.099-0.311-0.015-0.442c-0.161-0.183-0.104-0.353-0.037-0.541c0.047-0.119,0.146-0.272-0.042-0.356
		c-0.148-0.062-0.262,0.015-0.366,0.136c-0.252,0.311-0.368,0.271-0.593-0.094c-0.197-0.321-0.625-0.506-0.948-0.756
		c-0.351-0.279-0.543-0.578-0.109-0.946c0.235-0.198,0.338-0.397,0.163-0.721c-0.148-0.279-0.573-1.237-0.758-1.435
		c0.198-0.284,0.66,0.069,0.744-0.205c0.163-0.514,1.408-0.114,0.914-0.788c-0.341-0.464-0.069-0.894-0.346-1.267
		c-0.099-0.124-0.514-0.326-0.037-0.652c0.198-0.136-0.19-0.516-0.543-0.492c-0.452,0.032-0.901,0.089-1.336,0.195
		c-0.225,0.054-0.613,0.388-0.623,0.21c-0.02-0.368-0.395-0.771-0.01-1.142c0.133-0.131,0.192-0.318,0.435-0.353
		c0.183-0.03,0.405-0.148,0.363-0.39c-0.047-0.262-0.338-0.277-0.482-0.228c-0.652,0.208-0.583-0.047-0.539-0.553
		c0.025-0.296,0.025-0.805-0.489-0.99c-0.289-0.104-0.301-0.447-0.415-0.697c-0.128-0.267-0.371-0.477-0.657-0.469
		c-0.311,0.01-0.326,0.326-0.378,0.571c-0.094,0.42-0.378,0.701-0.706,0.976c-0.274,0.225-0.662,0.541-0.872,0.444
		c-0.341-0.158-0.282-0.617-0.175-0.983c0.603,0.269,1.277-0.161,1.301-0.8c0.01-0.287-0.163-0.39-0.355-0.296
		c-0.371,0.188-0.665-0.2-1.06-0.042c-0.358,0.143-0.571-0.358-0.551-0.521c0.044-0.383-0.188-0.761,0-1.124
		c0.188-0.097,0.227,0.002,0.321,0.133c0.267,0.39,0.635,0.331,0.943,0.072c0.439-0.366,0.044-0.539-0.22-0.736
		c-0.116-0.084-0.188-0.239-0.309-0.286c-0.729-0.27-0.775-0.66-0.252-1.176c0.405-0.4-0.104-0.539-0.25-0.526
		c-0.575,0.052-1.181-0.304-1.727,0.133c-0.108,0.086-0.306,0.212-0.459,0.03c-0.208-0.254,0.165-0.299,0.195-0.472
		c0.007-0.04,0.079-0.079,0.126-0.104c0.247-0.108,0.351-0.388,0.178-0.479c-0.217-0.114-0.173,0.195-0.252,0.333
		c-0.259,0.462-2.084,0.719-2.43,0.338c-0.161-0.176-0.549-0.438-0.341-0.692c0.39-0.489,0.439-0.862-0.03-1.319
		c-0.124-0.119-0.158-0.499-0.054-0.637c0.731-1.015-0.228-0.944-0.746-1.166c-0.133-0.057-0.321-0.156-0.375-0.002
		c-0.425,1.24-1.097,0.245-1.635,0.148c-0.208-0.035-0.791-0.171-0.301-0.677c0.158-0.166-0.099-0.302-0.259-0.321
		c-0.605-0.086-1.46,0.497-1.675,1.141c-0.082,0.24-0.138,0.469-0.427,0.2c-0.215-0.203-0.366-0.625-0.721-0.432
		c-0.41,0.225-0.793,0.578-0.949,1.022c-0.168,0.462-0.452,1.005,0.388,1.267c0.299,0.094,0.193,0.573,0.222,0.931
		c-0.528-0.578-1.124-0.946-1.892-1.06c-0.27-0.042-0.265-0.299-0.025-0.408c0.481-0.215,0.43-0.43,0.082-0.729
		c-0.228-0.198-0.077-0.41,0.064-0.585c0.096-0.126,0.474-0.108,0.237-0.39c-0.178-0.212-0.375,0.042-0.519,0.114
		c-0.445,0.22-0.855,0.506-1.383,0.83c0.108-1.099-0.904-0.946-1.428-1.304c-0.442-0.304-1.262,0.475-1.225,1.195
		c0.03,0.586-0.104,0.892-0.746,0.941c-0.338,0.024-0.864,1.109-0.691,1.388c0.153,0.252,0.573,0.481,0.667,0.225
		c0.153-0.425,0.672-0.397,0.786-0.82c-0.326-0.104-0.42,0.365-0.773,0.254c-0.032-0.378,0-0.833,0.405-0.939
		c0.85-0.222,0.926,0.734,1.613,1.089c-0.568,0.067-0.845,0.262-0.662,0.694c-0.346,0.133-0.504-0.417-0.724-0.156
		c-0.321,0.383-0.912,0.368-1.148,0.82c-0.05,0.096-0.089,0.249,0.059,0.269c0.208,0.025,0.531-0.109,0.439,0.264
		c-0.069,0.289-0.36,0.435-0.677,0.393c-0.415-0.057-0.632,0.071-0.669,0.501c-0.022,0.244-0.144,0.43-0.413,0.57
		c-0.203,0.109-0.672,0.41,0.029,0.62c0.321,0.096,0.074,0.447,0.109,0.677c0.04,0.292-0.208,0.237-0.405,0.274
		c-0.845,0.16-1.346,0.792-1.885,1.368c-0.076,0.079-0.126,0.254-0.19,0.257c-1.297,0.054-0.652,1.092-0.546,1.442
		c0.146,0.479-0.062,0.986,0.23,1.416c0.128,0.19,0.034,0.282-0.2,0.309c-0.265,0.035-0.309,0.373-0.242,0.455
		c0.259,0.316,0.133,0.373-0.183,0.499c-0.492,0.192-0.576,0.837-1.109,1.032c-0.118,0.047-0.138,0.25,0.052,0.319
		c0.731,0.282,0.43,0.674,0.079,0.996c-0.432,0.393-0.358,0.667,0.146,0.852c0.313,0.114,0.603,0.282,0.494,0.598
		c-0.089,0.257-0.069,0.608-0.65,0.652c-1.173,0.086-2.26,0.652-3.157,1.366c-0.696,0.553-1.013-0.19-1.514-0.178
		c0.074-0.396-0.17-0.274-0.348-0.193c-0.299,0.133-0.106,0.351-0.012,0.469c0.365,0.45,0.412,0.731-0.287,0.87
		c-0.329,0.062-0.247,0.371-0.064,0.521c0.474,0.383,0.464,0.665-0.128,0.872c-0.175,0.062-0.237,0.146-0.143,0.309
		c0.128,0.218,0.212-0.024,0.289-0.024c0.388,0.012,0.388,0.299,0.217,0.509c-0.18,0.217-0.136,0.568-0.015,0.509
		c0.531-0.259,0.857,0.25,1.265,0.223c0.259-0.018,0.378-0.025,0.388,0.225c0.005,0.215,0.005,0.442-0.349,0.425
		c-0.501-0.022-0.684,0.329-0.733,0.733c-0.042,0.356-0.005,0.652-0.484,0.837c-0.351,0.133,0.153,0.963,0.769,1.154
		c0.077,0.027,0.17,0.012,0.254,0.032c0.049,0.01,0.094,0.052,0.143,0.082c-0.049,0.24-0.321,0.388-0.279,0.716
		c0.528-0.054,1.032,0.099,1.519,0.272c0.259,0.089,0.489,0.229,0.148,0.6c-0.489,0.529-0.85,1.134-1.65,0.393
		c-0.192-0.178-0.415,0.002-0.329,0.249c0.146,0.417-0.047,0.749-0.274,1.156c1.015,0.178,2.005-0.62,2.835,0.202
		c-0.415,0.544-1.438,0.86-2.065,0.576c-0.439-0.198-0.934,0.089-0.884,0.583c0.049,0.477-0.163,0.504-0.459,0.331
		c-0.627-0.368-0.771,0.091-1.008,0.477c-0.301,0.494-0.632,0.968-0.973,1.438c-0.074,0.099-0.148,0.175-0.069,0.274
		c0.259,0.304,0.41,0.729,0.879,0.803c0.106,0.017,0.223-0.059,0.333-0.057c0.301,0.01,0.472,0.205,0.516,0.462
		c0.079,0.474-0.42,0.057-0.523,0.331c0.217,0.176,0.455,0.232,0.749,0.161c0.254-0.066,0.452,0,0.472,0.312
		c0.015,0.284-0.156,0.269-0.38,0.287c-0.578,0.052-0.563,0.61-0.791,0.958c-0.057,0.084-0.057,0.168,0.062,0.124
		c0.234-0.091,0.477-0.237,0.328,0.21c-0.079,0.24-0.301,0.44-0.509,0.279c-0.41-0.311-0.706-0.099-1.067,0.054
		c-0.168,0.072-0.447,0.366-0.603-0.099c-0.064-0.195-0.415,0-0.39,0.04c0.355,0.672-0.687,1.459,0.188,2.084
		c0.166,0.119-0.04,0.302-0.079,0.452c-0.04,0.146-0.01,0.289,0.136,0.36c0.121,0.06,0.212-0.02,0.284-0.113
		c0.355-0.479,0.603-0.027,0.924,0.104c-0.892,0.037-0.879,1.05-1.554,1.292c-0.032,0.01-0.069,0.116-0.052,0.144
		c0.57,0.795-0.336,1.638-0.005,2.327c0.336,0.691,0.133,1.181-0.015,1.811c-0.141,0.603,0.539,0.98,1.154,0.761
		c0.383-0.141,0.526-0.272,0.057-0.499c-0.173-0.084-0.242-0.269-0.18-0.422c0.072-0.183,0.284-0.148,0.447-0.133
		c0.351,0.032,0.736,0.156,0.875,0.435c0.099,0.2-0.037,0.519-0.378,0.716c-0.408,0.237,0.002,0.652,0.106,0.865
		c0.252,0.511,0.309,1.17,0.894,1.477c0.069,0.034,0.299-0.144,0.41-0.265c0.528-0.573,1.166-0.254,1.753-0.19
		c0.366,0.042,0.158,0.329,0.148,0.534c-0.01,0.188-0.267,0.459,0.084,0.563c0.22,0.069,0.469,0.203,0.709-0.047
		c0.657-0.682,1.524-0.553,2.369-0.684c0.509-0.079,1.077-0.057,1.605-0.247c0.763-0.282,1.309,0.348,1.892,0.689
		c0.274,0.163,0.351,0.227,0.682,0.044c0.635-0.355,1.356-0.346,2.102-0.19c0.771,0.161,1.569,0.556,2.379,0.096
		c0.188-0.106,0.373-0.15,0.553-0.002c0.768,0.623,1.512,0.647,2.302-0.002c0.217-0.178,0.598-0.282,0.874-0.24
		c0.396,0.064,0.064,0.462,0.188,0.697c0.252,0.481,0.173,0.971-0.072,1.442c-0.106,0.205-0.111,0.42-0.101,0.647
		c0.086,2.297,0.03,4.587-0.366,6.861c-0.069,0.4-0.257,0.603-0.667,0.601c-0.044,0-0.089,0-0.136,0
		c0.018,0.037,0.03,0.074,0.047,0.113c2.006,0,4.012,0.003,6.017,0.003c0.025-0.032,0.049-0.064,0.072-0.094
		c-0.43,0.002-0.857,0-1.287,0.002c-0.805,0.008-1.121-0.225-1.289-1.025c-0.563-2.751-0.497-5.525-0.472-8.304
		c0-0.223-0.141-0.791,0.457-0.354c0.136,0.102,0.188-0.017,0.274-0.082c0.892-0.647,1.867-0.588,2.527,0.205
		c0.563,0.682,1.344,0.64,1.998,0.447c0.741-0.215,1.46-0.163,2.188-0.227c0.314-0.025,0.766,0.232,0.887-0.358
		c0.03-0.156,0.27-0.114,0.435,0c0.479,0.333,1.047,0.185,1.346-0.128c0.358-0.368,0.956-0.497,1.099-1.154
		c0.089-0.402,0.674-0.365,0.845,0.045c0.301,0.731,1.042,0.652,1.571,0.956c0.183,0.106,0.475,0.116,0.489-0.121
		c0.035-0.472,0.998-0.847,0.091-1.492c1.099,0.509,2.09-0.355,3.11,0.032c0.173,0.069,0.385-0.05,0.4-0.22
		c0.077-0.899,0.968-0.961,1.448-0.983c1.035-0.044,1.625-0.59,2.322-1.178c0.539-0.457,1.24-0.889,2.065-0.467
		c0.121,0.064,0.277,0.114,0.405,0.091c0.326-0.054,0.756,0.099,0.948-0.239c0.208-0.358-0.148-0.608-0.346-0.85
		c-0.329-0.39-0.529-0.918-1.178-0.983c-0.264-0.025-0.618-0.265-0.487-0.556c0.193-0.433,0.445-1.094,0.958-1.028
		c1.186,0.158,1.823-0.355,2.27-1.312c0.032-0.067,0.188-0.079,0.324-0.133c-0.415-0.296-0.791,0.108-1.173-0.012
		c-0.151-0.047-0.373,0.203-0.492-0.102c-0.04-0.108-0.084-0.205,0-0.309c0.156-0.2,0.331-0.151,0.529-0.057
		c0.094,0.045,0.212,0.045,0.375,0.079c-0.371-0.971,0.499-1.042,0.983-1.368c0.148-0.102,0.425-0.064,0.439-0.309
		C271.169,363.924,270.838,364.045,270.72,363.936"/>
</g>
<g>
	<defs>
		<rect id="SVGID_5_" x="234.024" y="463.708" width="42.663" height="42.495"/>
	</defs>
	<clipPath id="SVGID_6_">
		<use xlink:href="#SVGID_5_"  overflow="visible"/>
	</clipPath>
	<path clip-path="url(#SVGID_6_)" fill="#D6C02F" d="M242.022,483.182v16.824c0,0.973-0.798,1.771-1.773,1.771
		c-0.978,0-1.778-0.798-1.778-1.771v-16.824c0-0.971,0.8-1.769,1.778-1.769C241.225,481.413,242.022,482.211,242.022,483.182
		 M265.133,482.74c0-1.221,0.993-2.213,2.223-2.213c1.226,0,2.218,0.993,2.218,2.213c0,1.223-0.993,2.215-2.218,2.215
		C266.125,484.955,265.133,483.963,265.133,482.74 M250.91,482.74c0-1.221,0.998-2.213,2.226-2.213c1.228,0,2.22,0.993,2.22,2.213
		c0,1.223-0.993,2.215-2.22,2.215C251.908,484.955,250.91,483.963,250.91,482.74 M250.922,476.987h-5.335l-0.007-3.1
		c0-2.69,2.186-4.869,4.891-4.869c0.435,0,0.86,0.055,1.26,0.168c-0.523,1.161-0.82,2.453-0.82,3.816L250.922,476.987z
		 M265.133,476.987h-9.767l-0.01-3.984c0-2.692,2.188-4.869,4.891-4.869c2.697,0,4.886,2.176,4.886,4.869V476.987z M234.024,502.661
		c0,1.959,1.591,3.542,3.557,3.542h35.549c1.961,0,3.557-1.583,3.557-3.542v-22.134c0-1.954-1.596-3.54-3.557-3.54h-3.557v-3.984
		c0-5.135-4.174-9.295-9.327-9.295c-2.11,0-4.046,0.689-5.603,1.857c-1.262-0.62-2.675-0.973-4.174-0.973
		c-5.157,0-9.334,4.162-9.334,9.295l0.01,3.1h-3.564c-1.966,0-3.557,1.585-3.557,3.54V502.661z"/>
</g>
<g>
	<defs>
		<rect id="SVGID_7_" x="121.5" y="463.708" width="50.189" height="44.206"/>
	</defs>
	<clipPath id="SVGID_8_">
		<use xlink:href="#SVGID_7_"  overflow="visible"/>
	</clipPath>
	<path clip-path="url(#SVGID_8_)" fill="#D6C02F" d="M163.323,500.02c0,1.453-1.171,2.631-2.613,2.631
		c-1.443,0-2.614-1.178-2.614-2.631c0-1.451,1.171-2.629,2.614-2.629C162.152,497.391,163.323,498.568,163.323,500.02
		 M142.411,500.02c0,1.453-1.171,2.631-2.613,2.631s-2.613-1.178-2.613-2.631c0-1.451,1.171-2.629,2.613-2.629
		S142.411,498.568,142.411,500.02 M147.64,500.02c0-0.926-0.156-1.811-0.452-2.629h6.121c-0.284,0.818-0.44,1.703-0.44,2.629
		c0,4.357,3.513,7.895,7.84,7.895c4.33,0,7.845-3.537,7.845-7.895c0-4.355-3.515-7.893-7.845-7.893h-17.253
		c-1.149,0-2.087-0.949-2.087-2.105c0-1.158,0.938-2.107,2.087-2.107h17.987c1.892,0,3.522-1.113,4.266-2.734
		c0.281-0.611,5.701-13.044,5.701-13.044c0.143-0.336,0.279-0.672,0.279-1.062c0-1.156-0.941-2.104-2.092-2.104h-32.645
		l-0.877-2.727c-0.407-1.462-1.549-2.537-3.075-2.537h-8.887c-1.442,0-2.613,1.181-2.613,2.63c0,1.455,1.171,2.633,2.613,2.633
		h5.489c0.934,0,1.716,0.61,1.991,1.442l4.412,22.702c-2.416,1.34-4.049,3.938-4.049,6.906c0,4.357,3.515,7.895,7.843,7.895
		S147.64,504.377,147.64,500.02"/>
</g>
<path fill-rule="evenodd" clip-rule="evenodd" fill="#D6C02F" d="M185.656,340.964c0-1.423-1.173-2.583-2.608-2.583
	c-0.716,0-1.368,0.288-1.837,0.756l-11.202,9.637v-7.811c0-1.423-1.173-2.583-2.608-2.583c-0.716,0-1.368,0.288-1.837,0.756
	l-11.202,9.637v-7.811c0-1.423-1.173-2.583-2.606-2.583c-0.719,0-1.371,0.288-1.84,0.756l-11.318,9.727l-2.49-28.477
	c0-1.591-1.28-2.869-2.87-2.869h-4.693c-1.591,0-2.868,1.278-2.868,2.869l-2.608,54.504c0,2.881,2.334,5.215,5.217,5.215h52.155
	c2.883,0,5.217-2.334,5.217-5.215V340.964z M147.842,357.771v2.947c0,1.343-1.094,2.439-2.438,2.439h-2.947
	c-1.344,0-2.438-1.096-2.438-2.439v-2.947c0-1.342,1.094-2.438,2.438-2.438h2.947C146.748,355.333,147.842,356.428,147.842,357.771z
	 M163.489,357.771v2.947c0,1.343-1.097,2.439-2.438,2.439h-2.947c-1.343,0-2.44-1.096-2.44-2.439v-2.947
	c0-1.342,1.097-2.438,2.44-2.438h2.947C162.393,355.333,163.489,356.428,163.489,357.771z M179.135,357.771v2.947
	c0,1.343-1.094,2.439-2.438,2.439h-2.947c-1.344,0-2.438-1.096-2.438-2.439v-2.947c0-1.342,1.094-2.438,2.438-2.438h2.947
	C178.041,355.333,179.135,356.428,179.135,357.771z"/>
</svg>
